# AST/ASF file generated using VICON BodyLanguage
# -----------------------------------------------
:version 1.10
:name VICON
:units
  mass 1.0
  length 0.45
  angle deg
:documentation
   .ast/.asf automatically generated from VICON data using
   VICON BodyBuilder and BodyLanguage model FoxedUp or BRILLIANT.MOD
:root
   order TX TY TZ RX RY RZ
   axis XYZ
   position 0 0 0  
   orientation 0 0 0 
:bonedata
  begin
     id 1 
     name lhipjoint
     direction 0.677091 -0.635792 0.370561 
     length 2.74323 
     axis 0 0 0  XYZ
  end
  begin
     id 2 
     name lfemur
     direction 0.34202 -0.939693 0  
     length 7.44995  
     axis 0 0 20  XYZ
    dof rx ry rz
    limits (-160.0 20.0)
           (-70.0 70.0)
           (-60.0 70.0)
  end
  begin
     id 3 
     name ltibia
     direction 0.34202 -0.939693 0   
     length 7.34467   
     axis 0 0 20   XYZ
    dof rx
    limits (-10.0 170.0)
  end
  begin
     id 4 
     name lfoot
     direction 0.101953 -0.280114 0.954537   
     length 1.72105   
     axis -90 7.62852e-016 20   XYZ
    dof rx rz
    limits (-45.0 90.0)
           (-70.0 20.0)
  end
  begin
     id 5 
     name ltoes
     direction 1.53537e-011 -4.21915e-011 1   
     length 0.865872   
     axis -90 7.62852e-016 20   XYZ
    dof rx
    limits (-90.0 20.0)
  end
  begin
     id 6 
     name rhipjoint
     direction -0.695735 -0.620586 0.361699   
     length 2.81045  
     axis 0 0 0  XYZ 
  end
  begin
     id 7 
     name rfemur
     direction -0.34202 -0.939693 0   
     length 7.29387   
     axis 0 0 -20   XYZ
    dof rx ry rz
    limits (-160.0 20.0)
           (-70.0 70.0)
           (-70.0 60.0)
  end
  begin
     id 8 
     name rtibia
     direction -0.34202 -0.939693 0   
     length 7.44935   
     axis 0 0 -20   XYZ
    dof rx
    limits (-10.0 170.0)
 end
 begin
     id 9 
     name rfoot
     direction -0.104163 -0.286184 0.952496   
     length 1.77731  
     axis -90 -7.62852e-016 -20   XYZ
    dof rx rz
    limits (-45.0 90.0)
           (-20.0 70.0)
  end
  begin
     id 10 
     name rtoes
     direction -1.5355e-011 -4.21888e-011 1   
     length 0.892424   
     axis -90 -7.62852e-016 -20   XYZ
    dof rx
    limits (-90.0 20.0)
  end
  begin
     id 11 
     name lowerback
     direction 0.0100202 0.997226 -0.0737589   
     length 2.16892   
     axis 0 0 0   XYZ
    dof rx ry rz
    limits (-20.0 45.0)
           (-30.0 30.0)
           (-30.0 30.0)
  end
  begin
     id 12 
     name upperback
     direction 0.00432398 0.999988 -0.00215019   
     length 2.17326   
     axis 0 0 0   XYZ
    dof rx ry rz
    limits (-20.0 45.0)
           (-30.0 30.0)
           (-30.0 30.0)
  end
  begin
     id 13 
     name thorax
     direction -0.00195047 0.999485 0.0320434   
     length 2.18139   
     axis 0 0 0   XYZ
    dof rx ry rz
    limits (-20.0 45.0)
           (-30.0 30.0)
           (-30.0 30.0)
  end
  begin
     id 14 
     name lowerneck
     direction 0.00782762 0.986241 0.165128   
     length 1.88415   
     axis 0 0 0   XYZ
    dof rx ry rz
    limits (-20.0 45.0)
           (-30.0 30.0)
           (-30.0 30.0)
  end
  begin
     id 15 
     name upperneck
     direction 0.00988667 0.981098 -0.193258   
     length 1.9242   
     axis 0 0 0   XYZ
    dof rx ry rz
    limits (-20.0 45.0)
           (-30.0 30.0)
           (-30.0 30.0)
  end
  begin
     id 16
     name head
     direction 0.00252199 0.996513 -0.0833958  
     length 1.93887  
     axis 0 0 0   XYZ
    dof rx ry rz
    limits (-20.0 45.0)
           (-30.0 30.0)
           (-30.0 30.0)
  end
  begin
     id 17 
     name lclavicle
     direction 0.929492 0.368193 -0.0218667  
     length 3.5955  
     axis 0 0 0   XYZ
    dof ry rz
    limits (-20.0 10.0)
           (0.0 20.0)
  end
  begin
     id 18 
     name lhumerus
     direction 1 -4.48972e-011 1.41911e-027   
     length 5.2795   
     axis 180 -30 -90   XYZ
    dof rx ry rz
    limits (-60.0 90.0)
           (-90.0 90.0)
           (-90.0 90.0)
  end
  begin
     id 19
     name lradius
     direction 1 -4.48963e-011 7.05772e-027   
     length 3.53504   
     axis 180 -30 -90   XYZ
    dof rx
    limits (-10.0 170.0)
  end
  begin
     id 20
     name lwrist
     direction 1 -4.48957e-011 9.54866e-027   
     length 1.76752   
     axis -7.69462e-015 90 90   XYZ
    dof ry
    limits (-180.0 0.0)
 end
  begin
     id 21 
     name lhand
     direction 1 -4.48979e-011 1.90973e-026   
     length 0.667948   
     axis -1.21857e-014 90 90   XYZ
    dof rx rz
    limits (-90.0 90.0)
           (-45.0 45.0)
  end
  begin
     id 22 
     name lfingers
     direction 1 -4.48987e-011 3.81946e-026   
     length 0.538517   
     axis -2.43714e-014 90 90   XYZ
    dof rx
    limits (0.0 90.0)
  end
  begin
     id 23
     name lthumb
     direction 0.707107 -6.34962e-011 0.707107   
     length 0.773206   
     axis -90 45 2.85299e-015   XYZ
    dof rx rz
    limits (-45.0 45.0)
           (-45.0 45.0)
  end
  begin
     id 24 
     name rclavicle
     direction -0.898763 0.414256 -0.143584   
     length 3.5176  
     axis 0 0 0   XYZ 
    dof ry rz
    limits (-10.0 20.0)
           (-20.0 0.0)
  end
  begin
     id 25 
     name rhumerus
     direction -1 -4.48971e-011 1.129e-027  
     length 5.25035   
     axis 180 30 90   XYZ
    dof rx ry rz
    limits (-90.0 60.0)
           (-90.0 90.0)
           (-90.0 90.0)
  end
  begin
     id 26 
     name rradius
     direction -1 -4.48955e-011 6.34664e-027   
     length 3.58884   
     axis 180 30 90   XYZ
    dof rx
    limits (-10.0 170.0)
  end
  begin
     id 27 
     name rwrist
     direction -1 -4.48966e-011 9.54866e-027   
     length 1.79442   
     axis -7.69462e-015 -90 -90   XYZ
    dof ry
    limits (-180.0 0.0)
  end
  begin
     id 28
     name rhand
     direction -1 -4.48973e-011 1.90973e-026   
     length 0.779235   
     axis -1.21857e-014 -90 -90   XYZ
    dof rx rz
    limits (-90.0 90.0)
           (-45.0 45.0)
  end
  begin
     id 29
     name rfingers
     direction -1 -4.48984e-011 3.81946e-026   
     length 0.62824   
     axis -2.43714e-014 -90 -90   XYZ
    dof rx
    limits (0.0 90.0)
  end
  begin
     id 30
     name rthumb
     direction -0.707107 -6.34968e-011 0.707107   
     length 0.90203   
     axis -90 -45 -2.85299e-015   XYZ
    dof rx rz
    limits (-45.0 45.0)
           (-45.0 45.0)
  end
:hierarchy
  begin
    root lhipjoint rhipjoint lowerback
    lhipjoint lfemur
    lfemur ltibia
    ltibia lfoot
    lfoot ltoes
    rhipjoint rfemur
    rfemur rtibia
    rtibia rfoot
    rfoot rtoes
    lowerback upperback
    upperback thorax
    thorax lowerneck lclavicle rclavicle
    lowerneck upperneck
    upperneck head
    lclavicle lhumerus
    lhumerus lradius
    lradius lwrist
    lwrist lhand lthumb
    lhand lfingers
    rclavicle rhumerus
    rhumerus rradius
    rradius rwrist
    rwrist rhand rthumb
    rhand rfingers
  end

#!OML:ASF I:\Random Stuff\random\construction\7_22_03\Session 2\subj1.ASF
:FULLY-SPECIFIED
:DEGREES
43
root -4.15644 17.7602 -2.26287 -16.935 80.4692 -24.3797
lowerback 2.18743 0.336378 -2.30307
upperback -2.94064 0.374013 0.0652952
thorax -4.27401 0.269081 1.3356
lowerneck -22.4172 -3.68065 -3.37098
upperneck 27.9249 -5.45385 5.219
head 13.4153 -1.8949 1.66779
rclavicle 1.10574e-014 2.38542e-015
rhumerus -37.6722 2.11179 -82.6417
rradius 30.6286
rwrist 2.30092
rhand -15.3463 20.1069
rfingers 7.12502
rthumb 10.8308 -9.5938
lclavicle 1.10574e-014 2.38542e-015
lhumerus -39.8273 2.26052 82.686
lradius 32.4016
lwrist 27.946
lhand -20.3597 57.8362
lfingers 7.12502
lthumb 5.99259 -272.269
rfemur -0.0265259 -1.05223 19.6921
rtibia 8.74653e-015
rfoot -7.22286 -23.1569
rtoes 16.9369
lfemur -12.6604 -14.0234 -12.7688
ltibia 22.4172
lfoot -15.59 14.8336
ltoes -28.1292
44
root -4.14106 17.7591 -2.27465 -16.9135 80.3893 -24.3119
lowerback 2.24672 0.328207 -2.33
upperback -2.94861 0.358446 0.0172444
thorax -4.31524 0.261892 1.30169
lowerneck -22.2477 -3.84372 -3.71837
upperneck 28.211 -5.73238 5.73338
head 13.549 -1.97305 1.88706
rclavicle 5.09386e-015 0
rhumerus -37.8544 1.38177 -82.2244
rradius 29.6901
rwrist 3.16449
rhand -15.4662 20.2017
rfingers 7.12502
rthumb 10.715 -9.50508
lclavicle 5.09386e-015 0
lhumerus -40.1909 2.94807 81.9208
lradius 30.9994
lwrist 27.3935
lhand -20.2677 57.7622
lfingers 7.12502
lthumb 6.08132 -272.345
rfemur 0.0335836 -0.974372 19.6767
rtibia 1.59028e-015
rfoot -6.88838 -23.2527
rtoes 15.2574
lfemur -12.5663 -13.8337 -12.8372
ltibia 22.4557
lfoot -15.6201 14.7115
ltoes -28.0837
45
root -4.12471 17.7588 -2.28944 -16.4587 80.3525 -23.7996
lowerback 2.15885 0.325467 -2.46059
upperback -2.82939 0.350424 -0.0230197
thorax -4.14194 0.257712 1.3347
lowerneck -22.028 -3.94001 -4.16688
upperneck 28.2846 -5.91255 6.37256
head 13.5885 -2.009 2.18938
rclavicle 2.55935e-015 -1.03368e-014
rhumerus -37.818 0.639037 -81.7168
rradius 28.8102
rwrist 3.78057
rhand -15.2645 20.3001
rfingers 7.12502
rthumb 10.9096 -9.3965
lclavicle 2.55935e-015 -1.03368e-014
lhumerus -40.3574 3.66104 81.2431
lradius 29.7406
lwrist 26.8878
lhand -20.4044 57.9445
lfingers 7.12502
lthumb 5.94939 -272.159
rfemur 0.111954 -0.91871 19.5421
rtibia 6.36111e-015
rfoot -6.72676 -23.3026
rtoes 14.2196
lfemur -12.4658 -13.7468 -13.0154
ltibia 22.4936
lfoot -15.6595 14.6926
ltoes -28.0126
46
root -4.10815 17.7566 -2.30179 -16.0463 80.3137 -23.3112
lowerback 2.08088 0.33516 -2.62444
upperback -2.7201 0.358393 -0.0524211
thorax -3.98583 0.262755 1.39657
lowerneck -21.5238 -3.96772 -4.80679
upperneck 28.2341 -6.00837 7.28253
head 13.5301 -1.99897 2.64935
rclavicle -1.00635e-014 5.56597e-015
rhumerus -37.8453 -0.024584 -81.2329
rradius 28.0009
rwrist 4.20324
rhand -15.2427 20.4326
rfingers 7.12502
rthumb 10.9306 -9.26284
lclavicle -1.00635e-014 5.56597e-015
lhumerus -40.4914 4.32495 80.6012
lradius 28.4954
lwrist 26.3216
lhand -20.6224 58.0971
lfingers 7.12502
lthumb 5.73888 -272.001
rfemur 0.245018 -0.863488 19.4042
rtibia -8.74653e-015
rfoot -6.90603 -23.2646
rtoes 14.8237
lfemur -12.3478 -13.4584 -13.1855
ltibia 22.5153
lfoot -15.6925 14.4869
ltoes -28.0639
47
root -4.0922 17.7545 -2.31099 -16.3024 80.2143 -23.4888
lowerback 2.13942 0.356847 -2.68344
upperback -2.73512 0.383218 -0.0454252
thorax -4.03639 0.27777 1.4351
lowerneck -20.7797 -3.98627 -5.63685
upperneck 28.255 -6.14429 8.54819
head 13.4789 -1.98029 3.28355
rclavicle -1.0138e-014 3.97569e-015
rhumerus -38.1088 -0.559653 -80.8033
rradius 27.3265
rwrist 4.58623
rhand -15.3427 20.3744
rfingers 7.12502
rthumb 10.8342 -9.3262
lclavicle -1.0138e-014 3.97569e-015
lhumerus -40.8683 4.86002 79.9831
lradius 27.3802
lwrist 25.6793
lhand -20.6953 58.0734
lfingers 7.12502
lthumb 5.66851 -272.022
rfemur 0.381001 -0.778776 19.4241
rtibia -1.03368e-014
rfoot -7.07532 -23.2334
rtoes 15.356
lfemur -12.2173 -13.0739 -13.1971
ltibia 22.535
lfoot -15.7564 14.1833
ltoes -28.0844
48
root -4.07653 17.7524 -2.32431 -16.208 80.1517 -23.3209
lowerback 2.25308 0.364347 -2.76439
upperback -2.75645 0.385234 -0.0661881
thorax -4.12382 0.282231 1.45823
lowerneck -19.9817 -3.90581 -6.60534
upperneck 28.0912 -6.24738 10.3361
head 13.3666 -1.89953 4.1563
rclavicle -1.51325e-014 -1.11319e-014
rhumerus -38.3025 -1.04124 -80.402
rradius 26.7005
rwrist 5.03996
rhand -15.332 20.2585
rfingers 7.12502
rthumb 10.8445 -9.44155
lclavicle -1.51325e-014 -1.11319e-014
lhumerus -41.2649 5.42041 79.3792
lradius 26.482
lwrist 24.9248
lhand -20.6629 58.2064
lfingers 7.12502
lthumb 5.69981 -271.89
rfemur 0.503028 -0.714406 19.3547
rtibia 6.36111e-015
rfoot -7.23216 -23.2215
rtoes 15.7967
lfemur -12.1064 -12.7572 -13.298
ltibia 22.5859
lfoot -15.8182 13.9311
ltoes -28.1823
49
root -4.06149 17.7493 -2.34405 -15.7723 80.1768 -22.8201
lowerback 2.29339 0.352213 -2.89201
upperback -2.66404 0.360973 -0.113985
thorax -4.05043 0.270809 1.48204
lowerneck -19.2131 -3.44827 -6.23854
upperneck 28.0603 -5.65902 10.1683
head 13.1044 -1.63766 4.12599
rclavicle 3.85145e-015 1.11319e-014
rhumerus -38.2594 -1.54037 -80.0127
rradius 26.103
rwrist 5.49464
rhand -15.3497 20.3024
rfingers 7.12502
rthumb 10.8275 -9.39846
lclavicle 3.85145e-015 1.11319e-014
lhumerus -41.4467 5.86073 78.9331
lradius 25.8148
lwrist 24.3745
lhand -20.6942 58.4311
lfingers 7.12502
lthumb 5.66955 -271.665
rfemur 0.622782 -0.720881 19.1683
rtibia 7.95139e-015
rfoot -7.37351 -23.2004
rtoes 16.0562
lfemur -12.0317 -12.4502 -13.5175
ltibia 22.6522
lfoot -15.8349 13.6558
ltoes -28.4004
50
root -4.04888 17.7471 -2.36717 -15.7673 80.2058 -22.7846
lowerback 2.38305 0.373257 -2.86177
upperback -2.64205 0.384682 -0.18903
thorax -4.07868 0.280515 1.38585
lowerneck -17.9538 -2.95561 -6.42163
upperneck 27.6661 -5.07988 10.8481
head 12.6418 -1.34147 4.50676
rclavicle 2.55438e-014 1.27222e-014
rhumerus -38.413 -2.00672 -79.6741
rradius 25.6849
rwrist 5.74038
rhand -15.3338 20.3932
rfingers 7.12502
rthumb 10.8428 -9.30688
lclavicle 2.55438e-014 1.27222e-014
lhumerus -41.7046 5.85585 78.6978
lradius 25.3789
lwrist 24.2344
lhand -20.7837 58.6955
lfingers 7.12502
lthumb 5.58315 -271.398
rfemur 0.707771 -0.753075 19.056
rtibia -4.77083e-015
rfoot -7.36691 -23.2005
rtoes 15.5803
lfemur -11.9997 -12.3008 -13.6504
ltibia 22.7083
lfoot -15.8937 13.4758
ltoes -28.1135
51
root -4.0391 17.7453 -2.38971 -15.8287 80.1897 -22.842
lowerback 2.40364 0.378842 -2.91114
upperback -2.6291 0.38917 -0.194508
thorax -4.07758 0.283909 1.40754
lowerneck -17.8836 -3.42598 -6.59236
upperneck 28.0869 -5.76668 10.9562
head 12.888 -1.63839 4.48962
rclavicle -2.58917e-014 -5.56597e-015
rhumerus -38.572 -2.28305 -79.3624
rradius 25.3736
rwrist 5.85652
rhand -15.3055 20.4525
rfingers 7.12502
rthumb 10.8701 -9.24618
lclavicle -2.58917e-014 -5.56597e-015
lhumerus -41.9725 6.0015 78.5117
lradius 25.0443
lwrist 23.9655
lhand -20.7818 58.9998
lfingers 7.12502
lthumb 5.58507 -271.094
rfemur 0.755758 -0.746143 18.9742
rtibia 3.18055e-015
rfoot -7.41327 -23.1868
rtoes 15.6471
lfemur -12.0028 -12.1313 -13.7281
ltibia 22.7622
lfoot -15.9711 13.2844
ltoes -27.664
